<svg width="410" height="81" viewBox="0 0 410 81" fill="#2BB3E3" xmlns="http://www.w3.org/2000/svg">
    <path d="M90.8179 67.9954L90.3056 70.8472H63.1201L63.6324 67.9954C72.1467 67.1853 72.6509 66.6749 74.4806 55.8429L81.6206 14.281H81.2058L45.9858 70.1019H43.9203L30.5187 15.7312H30.3154L23.5576 44.7678C21.6466 53.1207 20.8415 57.6009 20.2153 61.6761C19.5404 66.5371 21.8987 67.2825 28.5914 67.9954L28.079 70.8472H4L4.51232 67.9954C10.6358 67.2825 12.8965 66.1644 14.3928 61.8867C15.5394 58.3139 16.9706 53.8336 19.6949 43.2528L24.9401 22.0668C28.2417 8.82857 27.8026 8.41536 18.5645 7.48366L19.0768 4.63187H36.0241L50.4585 55.5674L83.4665 4.63187H101.04L100.528 7.48366C91.2814 8.29384 90.517 8.50447 88.9557 18.9962L83.3771 55.8753C81.7507 66.6749 81.9702 67.1772 90.8179 67.9954Z"
          />
    <path d="M105.139 60.0963C105.142 60.064 105.142 60.0314 105.139 59.9991L108.896 39.0642C109.945 33.1823 109.814 32.4289 104.927 31.5215C104.622 31.4662 104.35 31.2931 104.172 31.0398C103.994 30.7865 103.924 30.4734 103.976 30.1685L104.049 29.7634C104.083 29.5134 104.196 29.2806 104.371 29.0986C104.546 28.9166 104.775 28.7948 105.025 28.7507C109.34 28.0638 113.588 27.0038 117.719 25.5829C117.911 25.5194 118.117 25.5069 118.316 25.5465C118.515 25.5861 118.7 25.6764 118.853 25.8088C119.007 25.9411 119.123 26.1108 119.191 26.3013C119.258 26.4918 119.275 26.6965 119.24 26.8954L113.295 60.0477C112.14 66.5291 113.466 69.2107 118.174 66.7073C118.906 66.3103 119.321 66.2293 119.451 66.3751C119.752 66.7235 117.995 68.7084 117.995 68.7084L116.442 70.0128C115.808 70.3125 115.564 70.8229 114.539 70.904L106.22 70.8472C103.78 70.8472 103.78 68.2952 103.87 67.6065L105.139 60.0963ZM112.165 11.0728C112.453 9.6213 113.223 8.30888 114.352 7.34747C115.481 6.38607 116.902 5.83181 118.386 5.77423C121.281 5.77423 123.151 8.01841 122.606 11.0728C122.303 12.5048 121.528 13.7944 120.403 14.7358C119.278 15.6771 117.87 16.2159 116.401 16.2659C115.759 16.2588 115.125 16.1101 114.547 15.8304C113.969 15.5508 113.46 15.1473 113.056 14.6486C112.653 14.15 112.365 13.5686 112.214 12.9462C112.063 12.3238 112.051 11.6757 112.181 11.0484L112.165 11.0728Z"
          />
    <path d="M132.82 60.2502L136.593 39.1857C137.699 33.0203 137.406 32.1615 132.942 31.4324C132.77 31.4059 132.605 31.3454 132.456 31.2545C132.308 31.1636 132.179 31.0441 132.077 30.903C131.976 30.7619 131.904 30.6021 131.865 30.4328C131.826 30.2636 131.822 30.0883 131.852 29.9174C131.902 29.6524 132.033 29.4091 132.226 29.2207C132.42 29.0322 132.667 28.9077 132.934 28.8641C137.108 28.1825 141.208 27.111 145.181 25.664C145.397 25.5832 145.631 25.5609 145.859 25.5993C146.087 25.6378 146.3 25.7356 146.478 25.8829C146.655 26.0302 146.791 26.2217 146.87 26.438C146.949 26.6542 146.97 26.8875 146.929 27.1142L145.303 35.9369H145.514C149.564 30.8085 155.037 25.1373 159.997 25.1373C163.51 25.1373 165.519 27.7785 165.08 30.2252C164.82 31.3267 164.304 32.352 163.574 33.2187C162.843 34.0855 161.919 34.7695 160.876 35.2159C159.542 35.7263 158.631 35.6291 158.119 35.0133C157.701 34.3458 157.116 33.7979 156.422 33.423C155.728 33.048 154.948 32.859 154.158 32.8745C151.507 32.8745 147.718 35.8559 144.449 41.4218C144.367 41.559 144.312 41.7101 144.286 41.8674L140.985 60.2745C140.537 63.2316 140.098 68.1008 140.098 68.1008L139.976 69.4619C139.87 70.3855 139.635 70.8229 139.017 70.8716C137.439 70.9931 132.674 70.8716 132.674 70.8716C132.481 70.8723 132.291 70.8308 132.117 70.7501C131.942 70.6693 131.788 70.5513 131.664 70.4043C131.541 70.2574 131.451 70.0851 131.402 69.8998C131.353 69.7145 131.346 69.5207 131.381 69.3322V69.1945"
          />
    <path d="M230.876 39.5341C230.876 59.8451 216.466 72.2569 199.007 72.2569C181.734 72.2569 167.991 58.9944 167.991 40.9438C167.991 24.0112 180.019 0.5 200.056 0.5C216.279 0.5 230.876 20.7219 230.876 39.5341ZM177.725 38.3026C177.725 55.9887 187.557 68.8704 201.007 68.8704C211.579 68.8704 221.142 60.1287 221.142 42.07C221.142 22.2288 210.644 3.88651 198.145 3.88651C187.459 3.88651 177.725 20.7219 177.725 38.3026Z"
          />
    <path d="M236.52 64.5684L231.527 64.6576C224.289 67.3149 216.361 72.2569 210.725 72.2569C210.571 72.2569 199.454 72.5081 199.43 72.2569C199.43 72.1678 210.384 71.2361 210.197 71.1875C218.939 69.7454 228.965 63.0129 231.438 62.4539H236.211C236.211 62.4539 237.537 62.3809 238.789 62.389C238.919 62.389 238.903 70.8472 238.903 70.8472H242.318C242.367 70.0946 242.367 69.3395 242.318 68.5869V16.2984C242.318 10.4732 239.391 13.4223 233.283 12.8551V10.6919C237.764 10.1329 246.295 5.10987 249.857 3.88651V32.8502L257.59 29.5609C258.818 28.9909 260.148 28.6713 261.502 28.6211C271.707 28.6211 280.303 37.2737 280.303 48.3731C280.303 62.1946 269.138 71.9734 256.346 71.9734C254.646 71.9734 248.368 71.0822 244.961 68.7327C244.961 68.7327 245.051 71.5764 244.522 72.103C243.993 72.6296 237.976 72.7106 237.138 72.184C236.3 71.6574 236.496 64.6008 236.496 64.6008L236.52 64.5684ZM249.848 59.9747C249.8 61.0709 249.997 62.1641 250.426 63.1749C250.995 65.0545 253.858 68.3519 258.916 68.441C266.836 68.441 271.927 61.7652 271.927 50.8522C271.927 40.1336 265.242 33.9277 257.33 33.9277C254.738 33.9141 252.182 34.5286 249.881 35.7182L249.848 59.9747Z"
          />
    <path d="M332.169 68.5869C327.423 69.4019 322.736 70.5333 318.142 71.9734L317.572 71.4063V64.7305C315.377 66.3508 313.181 68.0279 310.506 69.5915C307.83 71.1551 305.74 71.941 303.187 71.941C296.795 71.941 291.346 68.0846 291.346 57.9331V39.5341C291.346 34.3571 290.972 33.9844 285.532 32.9474V30.8085C290.11 30.5134 294.667 29.948 299.178 29.1153C298.893 32.0319 298.893 36.4068 298.893 42.8882V55.4864C298.893 63.8636 302.959 66.1159 307.285 66.1159C310.725 66.1159 314.344 64.7062 317.597 61.6032V39.7285C317.597 34.3652 317.019 33.9925 310.148 33.0527V30.8085C315.176 30.6079 320.182 30.0419 325.127 29.1153V60.5257C325.127 65.2247 325.94 65.889 329.518 66.0754L332.194 66.2617L332.169 68.5869Z"
          />
    <path d="M378.27 32.0967C373.31 32.7611 372.456 33.6036 369.878 39.2505C366.731 46.299 361.673 57.8845 356.427 71.8843H353.841C349.556 60.5986 345.164 49.88 340.676 38.967C338.48 33.5145 337.724 32.8502 332.543 32.0967V29.7472H352.101V32.0967C346.953 32.7611 346.758 33.5145 348.287 37.5573C350.727 44.1359 354.581 54.0119 357.354 60.7849C360.689 52.9749 363.746 44.4194 365.844 38.3026C367.276 33.79 366.706 32.7611 361.266 32.0967V29.7472H378.246L378.27 32.0967Z"
          />
    <path d="M380.271 70.8472V68.4167C386.28 67.8577 386.955 67.2906 386.955 60.8903V41.5028C386.955 35.6777 386.662 35.2969 380.937 34.3571V32.0967C385.58 31.4021 390.127 30.1732 394.485 28.4348V60.8416C394.485 67.242 395.152 67.8091 401.26 68.3681V70.7986L380.271 70.8472Z"
          />
    <path d="M385.329 15.6421C385.329 14.3702 388.834 7.96979 390.208 7.96979C391.582 7.96979 394.981 14.3945 394.981 15.6421C394.981 16.8898 391.07 23.2253 390.102 23.2253C389.135 23.2253 385.329 16.9141 385.329 15.6421Z"
          />
    <path d="M396.925 16.9465C397.503 15.8123 403.545 11.6885 404.756 12.3042C405.968 12.9199 406.082 20.1872 405.513 21.2971C404.943 22.4071 398.576 26.2878 397.722 25.8584C396.868 25.429 396.348 18.0726 396.925 16.9465Z"
          />
    <path d="M381.775 25.8584C380.962 26.2878 374.562 22.4071 373.993 21.2971C373.423 20.1872 373.537 12.9199 374.749 12.3042C375.961 11.6885 381.995 15.8123 382.58 16.9465C383.166 18.0807 382.661 25.429 381.775 25.8584Z"
          />
</svg>
