<?xml version="1.0" encoding="utf-8"?>
<!-- Generator: Adobe Illustrator 26.0.1, SVG Export Plug-In . SVG Version: 6.00 Build 0)  -->
<svg version="1.1" xmlns="http://www.w3.org/2000/svg" x="0px" y="0px"
     viewBox="0 0 64 64" style="enable-background:new 0 0 64 64;" xml:space="preserve">
<style type="text/css">
     .st0 {
            fill: #46A9CE;
        }
    .st1 {
            fill: #fff;
        }
        @media (prefers-color-scheme: dark) {
            .st0 {
                fill: #46A9CE;
            },
            .st1 {
                fill: #ccc;
            }
        }
</style>

    <g id="Слой_2">
	<circle class="st1" cx="32" cy="32" r="32"/>
    </g>
    <g id="Слой_1">
	<g>
		<path class="st0" d="M23.4,61.1v-2.2c5.5-0.5,6.1-1,6.1-6.9V34.4c0-5.3-0.3-5.7-5.5-6.5v-2.1c4.4-0.7,8.5-1.8,12.3-3.3V52
			c0,5.8,0.6,6.3,6.1,6.9v2.2C42.4,61.1,23.4,61.1,23.4,61.1z"/>
        <path class="st0" d="M28,10.9c0-1.2,3.2-7,4.4-7s4.3,5.9,4.3,7s-3.5,6.9-4.4,6.9C31.4,17.8,28,12,28,10.9z"/>
        <path class="st0" d="M38.5,12c0.5-1,6-4.8,7.1-4.2s1.2,7.2,0.7,8.2s-6.3,4.5-7.1,4.2C38.4,19.8,38,13.1,38.5,12z"/>
        <path class="st0" d="M24.8,20.2C24,20.6,18.2,17,17.7,16s-0.4-7.6,0.7-8.2C19.5,7.3,25,11,25.5,12C26,13.1,25.6,19.8,24.8,20.2z"/>
	</g>
</g>
</svg>
